<svg width="1146" height="1538" viewBox="0 0 1146 1538" fill="none" xmlns="http://www.w3.org/2000/svg">
<path fill-rule="evenodd" clip-rule="evenodd" d="M847.526 7.0014C850.611 6.93348 853.148 9.41511 853.148 12.5001V101.639C853.148 103.768 851.919 105.705 849.993 106.613L694.024 180.163C689.647 182.226 686.855 186.63 686.855 191.469V371.127C686.855 375.517 681.965 378.138 678.31 375.707L578.876 309.588C577.343 308.568 576.422 306.849 576.422 305.008V111.852V111.462C576.422 109.853 577.126 108.325 578.349 107.28L690.189 11.7074C691.153 10.8833 692.373 10.4179 693.641 10.39L847.526 7.0014ZM575 315.417C574.315 314.961 573.683 314.443 573.11 313.874C572.442 314.598 571.683 315.249 570.843 315.807L471.41 381.926C463.102 387.451 451.989 381.495 451.989 371.518V191.859C451.989 189.73 450.76 187.792 448.834 186.884L292.865 113.335C290.992 112.452 289.409 111.14 288.211 109.549C287.013 111.14 285.43 112.452 283.557 113.335L127.587 186.884C125.662 187.792 124.433 189.73 124.433 191.859V371.518C124.433 381.495 113.32 387.451 105.012 381.926L5.57853 315.807C2.09397 313.49 0 309.583 0 305.398V111.852C0 108.197 1.60022 104.724 4.37931 102.35L116.22 6.77636C118.411 4.90348 121.183 3.84572 124.065 3.78226L277.951 0.393701C282.134 0.301575 285.875 2.27369 288.211 5.36954C290.547 2.27369 294.288 0.301575 298.471 0.393701L452.357 3.78226C455.239 3.84572 458.011 4.90348 460.202 6.77636L572.043 102.35C572.282 102.554 572.512 102.766 572.734 102.987C573.067 102.625 573.423 102.282 573.801 101.959L685.641 6.38575C687.833 4.51287 690.605 3.45512 693.487 3.39165L847.372 0.00309422C851.556 -0.0890326 855.297 1.88309 857.633 4.97897C859.969 1.88309 863.709 -0.0890326 867.893 0.00309422L1021.78 3.39165C1024.66 3.45512 1027.43 4.51287 1029.62 6.38575L1141.46 101.959C1144.24 104.334 1145.84 107.806 1145.84 111.462V305.008C1145.84 309.192 1143.75 313.099 1140.27 315.417L1040.83 381.536C1032.52 387.06 1021.41 381.104 1021.41 371.127V191.469C1021.41 189.34 1020.18 187.402 1018.26 186.494L862.287 112.945C860.414 112.061 858.831 110.75 857.633 109.158C856.435 110.75 854.852 112.061 852.979 112.945L697.009 186.494C695.084 187.402 693.855 189.34 693.855 191.469V371.127C693.855 381.104 682.742 387.06 674.434 381.536L575 315.417ZM569.422 111.852V305.008V305.398C569.422 307.24 568.501 308.959 566.967 309.978L467.534 376.098C463.879 378.528 458.989 375.908 458.989 371.518V191.859C458.989 187.021 456.196 182.617 451.82 180.553L295.85 107.004C293.925 106.096 292.696 104.158 292.696 102.029V12.8907C292.696 9.80571 295.233 7.32409 298.317 7.392L452.203 10.7806C453.471 10.8085 454.69 11.2739 455.655 12.098L567.495 107.671C568.718 108.716 569.422 110.244 569.422 111.852ZM846.255 159.099C849.906 157.35 854.132 160.011 854.132 164.059V311.306C854.132 313.352 852.995 315.229 851.182 316.179L733.23 377.923C729.568 379.84 725.18 377.183 725.18 373.05V220.563C725.18 218.447 726.394 216.518 728.304 215.603L846.255 159.099ZM857.633 155.378C854.089 151.726 848.406 150.307 843.231 152.786L725.279 209.29C720.941 211.369 718.18 215.752 718.18 220.563V373.05C718.18 382.444 728.154 388.481 736.477 384.124L854.429 322.38C855.638 321.747 856.715 320.932 857.633 319.98C858.551 320.932 859.628 321.747 860.837 322.38L978.789 384.124C987.112 388.481 997.086 382.444 997.086 373.05V220.563C997.086 215.752 994.325 211.369 989.986 209.29L872.034 152.786C866.86 150.307 861.177 151.726 857.633 155.378ZM278.105 7.392C281.189 7.32409 283.726 9.80571 283.726 12.8907V102.029C283.726 104.158 282.497 106.096 280.572 107.004L124.602 180.553C120.226 182.617 117.433 187.021 117.433 191.859V371.518C117.433 375.908 112.543 378.528 108.888 376.098L9.45457 309.978C7.92134 308.959 7 307.24 7 305.398V111.852C7 110.244 7.7041 108.716 8.9269 107.671L120.767 12.098C121.731 11.2739 122.951 10.8085 124.219 10.7806L278.105 7.392ZM276.834 159.489C280.484 157.74 284.71 160.402 284.71 164.45V311.696C284.71 313.743 283.574 315.62 281.76 316.569L163.809 378.313C160.147 380.23 155.758 377.574 155.758 373.441V220.954C155.758 218.837 156.973 216.908 158.882 215.994L276.834 159.489ZM273.809 153.176C278.984 150.697 284.667 152.117 288.211 155.768C291.755 152.117 297.438 150.697 302.613 153.176L420.564 209.681C424.903 211.759 427.664 216.143 427.664 220.954V373.441C427.664 382.835 417.69 388.872 409.367 384.515L291.415 322.771C290.206 322.138 289.129 321.323 288.211 320.37C287.293 321.323 286.216 322.138 285.007 322.771L167.055 384.515C158.732 388.872 148.758 382.835 148.758 373.441V220.954C148.758 216.143 151.519 211.759 155.857 209.681L273.809 153.176ZM283.726 780.61C283.726 777.525 281.189 775.043 278.105 775.111L124.219 778.5C122.951 778.527 121.731 778.993 120.767 779.817L8.9269 875.39C7.7041 876.435 7 877.963 7 879.571V1073.12C7 1074.96 7.92134 1076.68 9.45457 1077.7L108.888 1143.82C112.543 1146.25 117.433 1143.63 117.433 1139.24V959.578C117.433 954.74 120.226 950.336 124.602 948.272L280.572 874.723C282.497 873.815 283.726 871.877 283.726 869.748V780.61ZM277.951 768.113C282.134 768.021 285.875 769.993 288.211 773.089C290.547 769.993 294.288 768.021 298.471 768.113L452.357 771.501C455.239 771.565 458.011 772.622 460.202 774.495L572.043 870.068C572.303 870.291 572.554 870.524 572.794 870.766C573.11 870.428 573.446 870.106 573.801 869.802L685.641 774.229C687.833 772.356 690.605 771.299 693.487 771.235L847.372 767.847C851.556 767.754 855.297 769.727 857.633 772.822C859.969 769.727 863.709 767.754 867.893 767.847L1021.78 771.235C1024.66 771.299 1027.43 772.356 1029.62 774.229L1141.46 869.802C1144.24 872.177 1145.84 875.65 1145.84 879.305V1072.85C1145.84 1077.04 1143.75 1080.94 1140.27 1083.26L1040.83 1149.38C1032.52 1154.9 1021.41 1148.95 1021.41 1138.97V959.312C1021.41 957.183 1020.18 955.245 1018.26 954.337L862.287 880.788C860.414 879.905 858.831 878.593 857.633 877.002C856.435 878.593 854.852 879.905 852.979 880.788L697.009 954.337C695.084 955.245 693.855 957.183 693.855 959.312V1138.97C693.855 1148.95 682.742 1154.9 674.434 1149.38L575 1083.26C574.291 1082.79 573.639 1082.25 573.05 1081.66C572.396 1082.36 571.658 1082.98 570.843 1083.53L471.41 1149.65C463.102 1155.17 451.989 1149.21 451.989 1139.24V959.578C451.989 957.449 450.76 955.511 448.834 954.603L292.865 881.054C290.992 880.171 289.409 878.859 288.211 877.268C287.013 878.859 285.43 880.171 283.557 881.054L127.587 954.603C125.662 955.511 124.433 957.449 124.433 959.578V1139.24C124.433 1149.21 113.32 1155.17 105.012 1149.65L5.57853 1083.53C2.09397 1081.21 0 1077.3 0 1073.12V879.571C0 875.916 1.60022 872.443 4.37931 870.068L116.22 774.495C118.411 772.622 121.183 771.565 124.065 771.501L277.951 768.113ZM576.422 1072.85V879.571V879.305C576.422 877.697 577.126 876.169 578.349 875.124L690.189 779.551C691.153 778.727 692.373 778.261 693.641 778.233L847.526 774.845C850.611 774.777 853.148 777.259 853.148 780.344V869.482C853.148 871.611 851.919 873.549 849.993 874.457L694.024 948.006C689.647 950.07 686.855 954.474 686.855 959.312V1138.97C686.855 1143.36 681.965 1145.98 678.31 1143.55L578.876 1077.43C577.343 1076.41 576.422 1074.69 576.422 1072.85ZM567.495 875.39C568.718 876.435 569.422 877.963 569.422 879.571V1072.85V1073.12C569.422 1074.96 568.501 1076.68 566.967 1077.7L467.534 1143.82C463.879 1146.25 458.989 1143.63 458.989 1139.24V959.578C458.989 954.74 456.196 950.336 451.82 948.272L295.85 874.723C293.925 873.815 292.696 871.877 292.696 869.748V780.61C292.696 777.525 295.233 775.043 298.317 775.111L452.203 778.5C453.471 778.527 454.69 778.993 455.655 779.817L567.495 875.39ZM284.71 932.169C284.71 928.121 280.484 925.459 276.834 927.208L158.882 983.713C156.973 984.627 155.758 986.556 155.758 988.673V1141.16C155.758 1145.29 160.147 1147.95 163.809 1146.03L281.76 1084.29C283.574 1083.34 284.71 1081.46 284.71 1079.42V932.169ZM273.809 920.895C278.984 918.416 284.667 919.836 288.211 923.487C291.755 919.836 297.438 918.416 302.613 920.895L420.564 977.4C424.903 979.478 427.664 983.862 427.664 988.673V1141.16C427.664 1150.55 417.69 1156.59 409.367 1152.23L291.415 1090.49C290.206 1089.86 289.129 1089.04 288.211 1088.09C287.293 1089.04 286.216 1089.86 285.007 1090.49L167.055 1152.23C158.732 1156.59 148.758 1150.55 148.758 1141.16V988.673C148.758 983.862 151.519 979.478 155.857 977.4L273.809 920.895ZM846.255 926.942C849.906 925.193 854.132 927.854 854.132 931.902V1079.15C854.132 1081.2 852.995 1083.07 851.182 1084.02L733.23 1145.77C729.568 1147.68 725.18 1145.03 725.18 1140.89V988.407C725.18 986.29 726.394 984.361 728.304 983.447L846.255 926.942ZM857.633 923.221C854.089 919.57 848.406 918.15 843.231 920.629L725.279 977.134C720.941 979.212 718.18 983.596 718.18 988.407V1140.89C718.18 1150.29 728.154 1156.32 736.477 1151.97L854.429 1090.22C855.638 1089.59 856.715 1088.78 857.633 1087.82C858.551 1088.78 859.628 1089.59 860.837 1090.22L978.789 1151.97C987.112 1156.32 997.086 1150.29 997.086 1140.89V988.407C997.086 983.596 994.325 979.212 989.986 977.134L872.034 920.629C866.86 918.15 861.177 919.57 857.633 923.221ZM283.726 396.781C283.726 393.696 281.189 391.215 278.105 391.283L124.219 394.671C122.951 394.699 121.731 395.165 120.767 395.989L8.9269 491.562C7.7041 492.607 7 494.135 7 495.743V689.289C7 691.13 7.92134 692.849 9.45457 693.869L108.888 759.988C112.543 762.419 117.433 759.798 117.433 755.408V575.75C117.433 570.911 120.226 566.508 124.602 564.444L280.572 490.895C282.497 489.987 283.726 488.049 283.726 485.92V396.781ZM277.951 384.284C282.134 384.192 285.875 386.164 288.211 389.26C290.547 386.164 294.288 384.192 298.471 384.284L452.357 387.673C455.239 387.736 458.011 388.794 460.202 390.667L572.043 486.24C572.293 486.454 572.533 486.676 572.764 486.907C573.088 486.558 573.435 486.225 573.801 485.912L685.641 390.339C687.833 388.466 690.605 387.408 693.487 387.345L847.372 383.956C851.556 383.864 855.297 385.836 857.633 388.932C859.969 385.836 863.709 383.864 867.893 383.956L1021.78 387.345C1024.66 387.408 1027.43 388.466 1029.62 390.339L1141.46 485.912C1144.24 488.287 1145.84 491.759 1145.84 495.415V688.961C1145.84 693.145 1143.75 697.052 1140.27 699.37L1040.83 765.489C1032.52 771.013 1021.41 765.057 1021.41 755.08V575.422C1021.41 573.293 1020.18 571.355 1018.26 570.447L862.287 496.898C860.414 496.014 858.831 494.703 857.633 493.111C856.435 494.703 854.852 496.014 852.979 496.898L697.009 570.447C695.084 571.355 693.855 573.293 693.855 575.422V755.08C693.855 765.057 682.742 771.013 674.434 765.489L575 699.37C574.303 698.906 573.661 698.378 573.08 697.797C572.419 698.508 571.67 699.148 570.843 699.698L471.41 765.817C463.102 771.342 451.989 765.385 451.989 755.408V575.75C451.989 573.621 450.76 571.683 448.834 570.775L292.865 497.226C290.992 496.343 289.409 495.031 288.211 493.44C287.013 495.031 285.43 496.343 283.557 497.226L127.587 570.775C125.662 571.683 124.433 573.621 124.433 575.75V755.408C124.433 765.385 113.32 771.342 105.012 765.817L5.57853 699.698C2.09397 697.381 0 693.474 0 689.289V495.743C0 492.088 1.60022 488.615 4.37931 486.24L116.22 390.667C118.411 388.794 121.183 387.736 124.065 387.673L277.951 384.284ZM576.422 495.415V495.743V688.961C576.422 690.802 577.343 692.521 578.876 693.541L678.31 759.66C681.965 762.091 686.855 759.47 686.855 755.08V575.422C686.855 570.583 689.647 566.179 694.024 564.115L849.993 490.566C851.919 489.658 853.148 487.721 853.148 485.592V396.453C853.148 393.368 850.611 390.886 847.526 390.954L693.641 394.343C692.373 394.371 691.153 394.836 690.189 395.66L578.349 491.233C577.126 492.278 576.422 493.806 576.422 495.415ZM567.495 491.562C568.718 492.607 569.422 494.135 569.422 495.743V688.961V689.289C569.422 691.13 568.501 692.849 566.967 693.869L467.534 759.988C463.879 762.419 458.989 759.798 458.989 755.408V575.75C458.989 570.911 456.196 566.508 451.82 564.444L295.85 490.895C293.925 489.987 292.696 488.049 292.696 485.92V396.781C292.696 393.696 295.233 391.215 298.317 391.283L452.203 394.671C453.471 394.699 454.69 395.165 455.655 395.989L567.495 491.562ZM284.71 548.34C284.71 544.292 280.484 541.631 276.834 543.38L158.882 599.884C156.973 600.799 155.758 602.728 155.758 604.845V757.331C155.758 761.465 160.147 764.121 163.809 762.204L281.76 700.46C283.574 699.511 284.71 697.634 284.71 695.587V548.34ZM273.809 537.067C278.984 534.588 284.667 536.008 288.211 539.659C291.755 536.008 297.438 534.588 302.613 537.067L420.564 593.571C424.903 595.65 427.664 600.034 427.664 604.845V757.331C427.664 766.725 417.69 772.762 409.367 768.406L291.415 706.662C290.206 706.029 289.129 705.214 288.211 704.261C287.293 705.214 286.216 706.029 285.007 706.662L167.055 768.406C158.732 772.762 148.758 766.725 148.758 757.331V604.845C148.758 600.034 151.519 595.65 155.857 593.571L273.809 537.067ZM846.255 543.052C849.906 541.303 854.132 543.964 854.132 548.012V695.259C854.132 697.305 852.995 699.182 851.182 700.132L733.23 761.876C729.568 763.793 725.18 761.136 725.18 757.003V604.516C725.18 602.4 726.394 600.471 728.304 599.556L846.255 543.052ZM857.633 539.331C854.089 535.679 848.406 534.26 843.231 536.739L725.279 593.243C720.941 595.322 718.18 599.705 718.18 604.516V757.003C718.18 766.397 728.154 772.434 736.477 768.077L854.429 706.333C855.638 705.7 856.715 704.885 857.633 703.933C858.551 704.885 859.628 705.7 860.837 706.333L978.789 768.077C987.112 772.434 997.086 766.397 997.086 757.003V604.516C997.086 599.705 994.325 595.322 989.986 593.243L872.034 536.739C866.86 534.26 861.177 535.679 857.633 539.331ZM283.726 1164.38C283.726 1161.29 281.189 1158.81 278.105 1158.88L124.219 1162.26C122.951 1162.29 121.731 1162.76 120.767 1163.58L8.9269 1259.16C7.7041 1260.2 7 1261.73 7 1263.34V1456.88C7 1458.72 7.92134 1460.44 9.45457 1461.46L108.888 1527.58C112.543 1530.01 117.433 1527.39 117.433 1523V1343.34C117.433 1338.51 120.226 1334.1 124.602 1332.04L280.572 1258.49C282.497 1257.58 283.726 1255.64 283.726 1253.51V1164.38ZM277.951 1151.88C282.134 1151.79 285.875 1153.76 288.211 1156.85C290.547 1153.76 294.288 1151.79 298.471 1151.88L452.357 1155.27C455.239 1155.33 458.011 1156.39 460.202 1158.26L572.043 1253.83C572.221 1253.99 572.394 1254.14 572.562 1254.3C572.651 1254.39 572.738 1254.47 572.824 1254.56C573.131 1254.24 573.457 1253.92 573.801 1253.63L685.641 1158.06C687.833 1156.18 690.605 1155.13 693.487 1155.06L847.372 1151.67C851.556 1151.58 855.297 1153.56 857.633 1156.65C859.969 1153.56 863.709 1151.58 867.893 1151.67L1021.78 1155.06C1024.66 1155.13 1027.43 1156.18 1029.62 1158.06L1141.46 1253.63C1144.24 1256.01 1145.84 1259.48 1145.84 1263.13V1456.68C1145.84 1460.86 1143.75 1464.77 1140.27 1467.09L1040.83 1533.21C1032.52 1538.73 1021.41 1532.78 1021.41 1522.8V1343.14C1021.41 1341.01 1020.18 1339.07 1018.26 1338.17L862.287 1264.62C860.414 1263.73 858.831 1262.42 857.633 1260.83C856.435 1262.42 854.852 1263.73 852.979 1264.62L697.009 1338.17C695.084 1339.07 693.855 1341.01 693.855 1343.14V1522.8C693.855 1532.78 682.742 1538.73 674.434 1533.21L575 1467.09C574.278 1466.61 573.616 1466.06 573.02 1465.45C572.374 1466.14 571.645 1466.76 570.843 1467.29L471.41 1533.41C463.102 1538.94 451.989 1532.98 451.989 1523V1343.34C451.989 1341.21 450.76 1339.28 448.834 1338.37L292.865 1264.82C290.992 1263.94 289.409 1262.62 288.211 1261.03C287.013 1262.62 285.43 1263.94 283.557 1264.82L127.587 1338.37C125.662 1339.28 124.433 1341.21 124.433 1343.34V1523C124.433 1532.98 113.32 1538.94 105.012 1533.41L5.57853 1467.29C2.09397 1464.97 0 1461.07 0 1456.88V1263.34C0 1259.68 1.60022 1256.21 4.37931 1253.83L116.22 1158.26C118.411 1156.39 121.183 1155.33 124.065 1155.27L277.951 1151.88ZM576.422 1456.68V1263.34V1263.13C576.422 1261.53 577.126 1260 578.349 1258.95L690.189 1163.38C691.153 1162.56 692.373 1162.09 693.641 1162.06L847.526 1158.67C850.611 1158.61 853.148 1161.09 853.148 1164.17V1253.31C853.148 1255.44 851.919 1257.38 849.993 1258.29L694.024 1331.83C689.647 1333.9 686.855 1338.3 686.855 1343.14V1522.8C686.855 1527.19 681.965 1529.81 678.31 1527.38L578.876 1461.26C577.343 1460.24 576.422 1458.52 576.422 1456.68ZM567.495 1259.16C568.718 1260.2 569.422 1261.73 569.422 1263.34V1456.68V1456.88C569.422 1458.72 568.501 1460.44 566.967 1461.46L467.534 1527.58C463.879 1530.01 458.989 1527.39 458.989 1523V1343.34C458.989 1338.51 456.196 1334.1 451.82 1332.04L295.85 1258.49C293.925 1257.58 292.696 1255.64 292.696 1253.51V1164.38C292.696 1161.29 295.233 1158.81 298.317 1158.88L452.203 1162.26C453.471 1162.29 454.69 1162.76 455.655 1163.58L567.495 1259.16ZM284.71 1315.93C284.71 1311.89 280.484 1309.22 276.834 1310.97L158.882 1367.48C156.973 1368.39 155.758 1370.32 155.758 1372.44V1524.92C155.758 1529.06 160.147 1531.71 163.809 1529.8L281.76 1468.05C283.574 1467.1 284.71 1465.23 284.71 1463.18V1315.93ZM273.809 1304.66C278.984 1302.18 284.667 1303.6 288.211 1307.25C291.755 1303.6 297.438 1302.18 302.613 1304.66L420.564 1361.17C424.903 1363.24 427.664 1367.63 427.664 1372.44V1524.92C427.664 1534.32 417.69 1540.36 409.367 1536L291.415 1474.26C290.206 1473.62 289.129 1472.81 288.211 1471.85C287.293 1472.81 286.216 1473.62 285.007 1474.26L167.055 1536C158.732 1540.36 148.758 1534.32 148.758 1524.92V1372.44C148.758 1367.63 151.519 1363.24 155.857 1361.17L273.809 1304.66ZM846.255 1310.77C849.906 1309.02 854.132 1311.68 854.132 1315.73V1462.98C854.132 1465.02 852.995 1466.9 851.182 1467.85L733.23 1529.59C729.568 1531.51 725.18 1528.86 725.18 1524.72V1372.24C725.18 1370.12 726.394 1368.19 728.304 1367.27L846.255 1310.77ZM857.633 1307.05C854.089 1303.4 848.406 1301.98 843.231 1304.46L725.279 1360.96C720.941 1363.04 718.18 1367.42 718.18 1372.24V1524.72C718.18 1534.12 728.154 1540.15 736.477 1535.8L854.429 1474.05C855.638 1473.42 856.715 1472.6 857.633 1471.65C858.551 1472.6 859.628 1473.42 860.837 1474.05L978.789 1535.8C987.112 1540.15 997.086 1534.12 997.086 1524.72V1372.24C997.086 1367.42 994.325 1363.04 989.986 1360.96L872.034 1304.46C866.86 1301.98 861.177 1303.4 857.633 1307.05ZM291.712 164.45C291.712 160.402 295.938 157.74 299.588 159.489L417.54 215.994C419.449 216.908 420.664 218.837 420.664 220.954V373.441C420.664 377.574 416.275 380.23 412.613 378.313L294.661 316.569C292.848 315.62 291.712 313.743 291.712 311.696V164.45ZM867.739 7.0014C864.655 6.93348 862.118 9.41511 862.118 12.5001V101.639C862.118 103.768 863.347 105.705 865.272 106.613L1021.24 180.163C1025.62 182.226 1028.41 186.63 1028.41 191.469V371.127C1028.41 375.517 1033.3 378.138 1036.96 375.707L1136.39 309.588C1137.92 308.568 1138.84 306.849 1138.84 305.008V111.462C1138.84 109.853 1138.14 108.325 1136.92 107.28L1025.08 11.7074C1024.11 10.8833 1022.89 10.4179 1021.62 10.39L867.739 7.0014ZM869.01 159.099C865.359 157.35 861.134 160.011 861.134 164.059V311.306C861.134 313.352 862.27 315.229 864.083 316.179L982.035 377.923C985.697 379.84 990.086 377.183 990.086 373.05V220.563C990.086 218.447 988.871 216.518 986.962 215.603L869.01 159.099ZM291.712 932.169C291.712 928.121 295.938 925.459 299.588 927.208L417.54 983.713C419.449 984.627 420.664 986.556 420.664 988.673V1141.16C420.664 1145.29 416.275 1147.95 412.613 1146.03L294.661 1084.29C292.848 1083.34 291.712 1081.46 291.712 1079.42V932.169ZM867.739 774.845C864.655 774.777 862.118 777.259 862.118 780.344V869.482C862.118 871.611 863.347 873.549 865.272 874.457L1021.24 948.006C1025.62 950.07 1028.41 954.474 1028.41 959.312V1138.97C1028.41 1143.36 1033.3 1145.98 1036.96 1143.55L1136.39 1077.43C1137.92 1076.41 1138.84 1074.69 1138.84 1072.85V879.305C1138.84 877.697 1138.14 876.169 1136.92 875.124L1025.08 779.551C1024.11 778.727 1022.89 778.261 1021.62 778.233L867.739 774.845ZM869.01 926.942C865.359 925.193 861.134 927.854 861.134 931.902V1079.15C861.134 1081.2 862.27 1083.07 864.083 1084.02L982.035 1145.77C985.697 1147.68 990.086 1145.03 990.086 1140.89V988.407C990.086 986.29 988.871 984.361 986.962 983.447L869.01 926.942ZM291.712 548.34C291.712 544.292 295.938 541.631 299.588 543.38L417.54 599.884C419.449 600.799 420.664 602.728 420.664 604.845V757.331C420.664 761.465 416.275 764.121 412.613 762.204L294.661 700.46C292.848 699.511 291.712 697.634 291.712 695.587V548.34ZM867.739 390.954C864.655 390.886 862.118 393.368 862.118 396.453V485.592C862.118 487.721 863.347 489.658 865.272 490.566L1021.24 564.115C1025.62 566.179 1028.41 570.583 1028.41 575.422V755.08C1028.41 759.47 1033.3 762.091 1036.96 759.66L1136.39 693.541C1137.92 692.521 1138.84 690.802 1138.84 688.961V495.415C1138.84 493.806 1138.14 492.278 1136.92 491.233L1025.08 395.66C1024.11 394.836 1022.89 394.371 1021.62 394.343L867.739 390.954ZM869.01 543.052C865.359 541.303 861.134 543.964 861.134 548.012V695.259C861.134 697.305 862.27 699.182 864.083 700.132L982.035 761.876C985.697 763.793 990.086 761.136 990.086 757.003V604.516C990.086 602.4 988.871 600.471 986.962 599.556L869.01 543.052ZM291.712 1315.93C291.712 1311.89 295.938 1309.22 299.588 1310.97L417.54 1367.48C419.449 1368.39 420.664 1370.32 420.664 1372.44V1524.92C420.664 1529.06 416.275 1531.71 412.613 1529.8L294.661 1468.05C292.848 1467.1 291.712 1465.23 291.712 1463.18V1315.93ZM867.739 1158.67C864.655 1158.61 862.118 1161.09 862.118 1164.17V1253.31C862.118 1255.44 863.347 1257.38 865.272 1258.29L1021.24 1331.83C1025.62 1333.9 1028.41 1338.3 1028.41 1343.14V1522.8C1028.41 1527.19 1033.3 1529.81 1036.96 1527.38L1136.39 1461.26C1137.92 1460.24 1138.84 1458.52 1138.84 1456.68V1263.13C1138.84 1261.53 1138.14 1260 1136.92 1258.95L1025.08 1163.38C1024.11 1162.56 1022.89 1162.09 1021.62 1162.06L867.739 1158.67ZM869.01 1310.77C865.359 1309.02 861.134 1311.68 861.134 1315.73V1462.98C861.134 1465.02 862.27 1466.9 864.083 1467.85L982.035 1529.59C985.697 1531.51 990.086 1528.86 990.086 1524.72V1372.24C990.086 1370.12 988.871 1368.19 986.962 1367.27L869.01 1310.77Z" fill="white" fill-opacity="0.1"/>
</svg>
