<svg width="510" height="370" viewBox="0 0 510 370" fill="none" xmlns="http://www.w3.org/2000/svg">
<g clip-path="url(#clip0_3_260)">
<path d="M218.471 346.028C314.024 346.028 391.485 268.567 391.485 173.014C391.485 77.4611 314.024 0 218.471 0C122.918 0 45.4568 77.4611 45.4568 173.014C45.4568 268.567 122.918 346.028 218.471 346.028Z" fill="#F2F2F2"/>
<path d="M68.6491 370C106.563 370 137.298 365.082 137.298 359.016C137.298 352.95 106.563 348.032 68.6491 348.032C30.7352 348.032 0 352.95 0 359.016C0 365.082 30.7352 370 68.6491 370Z" fill="#F2F2F2"/>
<path d="M403.545 358.835C462.209 358.835 509.766 351.226 509.766 341.84C509.766 332.453 462.209 324.844 403.545 324.844C344.881 324.844 297.325 332.453 297.325 341.84C297.325 351.226 344.881 358.835 403.545 358.835Z" fill="#F2F2F2"/>
<path d="M379.945 178.48C379.945 178.48 380.849 181.495 375.725 184.208C370.6 186.921 369.093 197.17 375.122 200.184C381.151 203.199 382.959 207.117 379.945 209.83C376.93 212.543 371.504 219.778 378.739 221.587C385.974 223.395 386.878 227.013 384.768 228.52C382.658 230.027 389.591 225.807 389.591 225.807C389.591 225.807 390.797 233.041 397.127 231.233C403.457 229.424 421.242 195.06 412.199 190.237C403.156 185.414 379.945 178.48 379.945 178.48Z" fill="#2F2E41"/>
<path d="M390.871 207.588C390.871 207.588 393.997 218.532 388.525 219.313C385.13 219.843 381.912 221.184 379.145 223.222L389.307 236.511H408.068L419.794 224.785C419.794 224.785 404.16 213.06 407.287 206.024C410.414 198.989 390.871 207.588 390.871 207.588Z" fill="#FFB9B9"/>
<path opacity="0.1" d="M390.871 207.588C390.871 207.588 393.997 218.532 388.525 219.313C385.13 219.843 381.912 221.184 379.145 223.222L389.307 236.511H408.068L419.794 224.785C419.794 224.785 404.16 213.06 407.287 206.024C410.414 198.989 390.871 207.588 390.871 207.588Z" fill="black"/>
<path d="M395.561 343.607L413.541 349.86L426.048 350.642L425.266 339.698L399.469 332.068L395.561 343.607Z" fill="#FFB9B9"/>
<path d="M418.622 341.261C418.622 341.261 418.622 352.205 420.185 352.205C421.748 352.205 442.855 349.86 449.109 352.205C455.362 354.55 464.743 345.952 460.053 341.261C455.362 336.571 447.712 329.536 442.938 331.099C438.164 332.662 418.622 336.571 418.622 336.571V341.261Z" fill="#575A89"/>
<path d="M361.165 331.099C361.165 331.099 351.785 349.86 358.039 351.423C364.292 352.987 371.328 350.642 372.109 349.86C372.891 349.078 383.835 345.951 385.399 347.515C386.962 349.078 386.962 341.261 386.962 341.261L361.165 331.099Z" fill="#575A89"/>
<path d="M368.983 305.302C368.983 305.302 354.13 325.627 365.074 331.099C376.018 336.571 428.393 336.571 432.302 331.099C436.21 325.627 437.774 308.429 432.302 306.866C426.83 305.302 368.983 305.302 368.983 305.302Z" fill="#2F2E41"/>
<path opacity="0.2" d="M368.983 305.302C368.983 305.302 354.13 325.627 365.074 331.099C376.018 336.571 428.393 336.571 432.302 331.099C436.21 325.627 437.774 308.429 432.302 306.866C426.83 305.302 368.983 305.302 368.983 305.302Z" fill="black"/>
<path d="M397.124 213.06C407.054 213.06 415.104 205.01 415.104 195.08C415.104 185.151 407.054 177.101 397.124 177.101C387.195 177.101 379.145 185.151 379.145 195.08C379.145 205.01 387.195 213.06 397.124 213.06Z" fill="#FFB9B9"/>
<path d="M368.983 223.222L384.617 220.095C384.617 220.095 388.525 232.603 401.033 230.258C413.54 227.912 416.667 220.095 416.667 220.095C416.667 220.095 426.048 224.004 426.83 224.004C427.611 224.004 437.774 227.912 437.774 230.258C437.774 232.603 426.048 256.054 426.048 256.054L427.611 298.267L369.764 296.703L373.673 255.272L368.983 223.222Z" fill="#1955BE"/>
<path d="M360.384 243.547C360.384 243.547 355.693 284.978 358.82 288.104C361.947 291.231 374.455 299.83 374.455 299.83V290.45L368.201 278.724L374.455 251.364L360.384 243.547Z" fill="#FFB9B9"/>
<path d="M441.291 242.374C441.291 242.374 438.555 284.978 438.555 286.541C438.555 288.105 431.52 293.577 429.175 293.577C426.83 293.577 425.266 289.668 425.266 289.668L430.738 283.414L426.83 251.364L441.291 242.374Z" fill="#FFB9B9"/>
<path d="M433.865 302.175C433.865 302.175 469.042 282.632 469.824 302.175C470.606 321.718 451.844 329.535 451.844 329.535C451.844 329.535 403.378 344.069 401.424 338.756C399.469 333.444 395.561 324.845 398.688 324.063C401.815 323.282 405.723 321.718 407.287 323.282C408.85 324.845 428.393 311.556 428.393 311.556L433.865 302.175Z" fill="#2F2E41"/>
<path opacity="0.2" d="M450.281 299.83C450.281 299.83 443.246 302.957 440.9 305.302C438.555 307.647 428.393 311.556 428.393 311.556" stroke="black" stroke-width="2" stroke-miterlimit="10"/>
<path d="M373.673 224.785L368.983 223.222C368.983 223.222 351.785 241.202 357.257 245.892C362.729 250.582 365.856 252.146 367.419 253.709C368.983 255.272 376.8 256.054 376.8 256.054L373.673 224.785Z" fill="#1955BE"/>
<path d="M430.738 228.694L437.774 230.258C437.774 230.258 443.246 241.983 444.809 243.547C446.373 245.11 442.464 244.328 440.119 247.455C437.774 250.582 435.428 256.054 430.738 256.054C426.048 256.054 419.794 248.237 419.794 248.237L430.738 228.694Z" fill="#1955BE"/>
<path d="M370.546 309.211C370.546 309.211 340.841 288.104 330.678 303.739C320.516 319.373 374.455 340.479 382.272 343.606C390.089 346.733 397.124 349.86 397.124 349.86C397.124 349.86 404.16 332.662 404.16 329.535C404.16 326.409 398.688 326.409 397.124 326.409C395.561 326.409 388.525 324.845 386.962 322.5C385.399 320.155 370.546 309.211 370.546 309.211Z" fill="#2F2E41"/>
<path opacity="0.2" d="M354.13 303.739C354.13 303.739 361.947 309.993 368.983 311.556C376.018 313.119 378.363 317.028 378.363 317.028" stroke="black" stroke-width="2" stroke-miterlimit="10"/>
<path d="M365.154 274.347L365.778 307.445C365.799 308.538 366.251 309.579 367.035 310.34C367.82 311.102 368.874 311.522 369.967 311.51L431.561 310.818C432.611 310.806 433.617 310.396 434.376 309.672C435.135 308.947 435.591 307.961 435.651 306.913L437.521 274.507C437.553 273.944 437.47 273.38 437.277 272.85C437.084 272.32 436.785 271.834 436.397 271.424C436.01 271.014 435.543 270.687 435.025 270.464C434.507 270.24 433.948 270.125 433.384 270.125H369.296C368.746 270.125 368.2 270.235 367.693 270.448C367.185 270.661 366.725 270.973 366.339 271.366C365.953 271.759 365.65 272.225 365.446 272.737C365.243 273.249 365.143 273.796 365.154 274.347Z" fill="#575A89"/>
<path d="M398.085 172.495C398.085 172.495 399.087 175.834 393.41 178.839C387.733 181.845 386.063 193.199 392.742 196.538C399.421 199.878 401.424 204.219 398.085 207.224C394.746 210.23 388.735 218.244 396.749 220.248C404.764 222.251 405.766 226.259 403.428 227.928C401.09 229.598 408.771 224.923 408.771 224.923C408.771 224.923 410.107 232.937 417.119 230.934C424.132 228.93 431.129 192.509 423.312 183.128C416.043 174.406 398.085 172.495 398.085 172.495Z" fill="#2F2E41"/>
<path d="M395.952 169.057C395.953 164.165 410.59 167.68 416.866 174.511C421.211 179.241 427.812 186.358 422.281 191.374C416.75 196.391 431.761 202.967 435.787 204.961C439.813 206.954 447.763 213.051 440.585 217.142C433.408 221.232 433.523 225.361 436.225 226.339C438.926 227.316 430.269 224.885 430.269 224.885C430.269 224.885 431.144 232.963 423.85 232.924C416.557 232.885 395.634 192.804 400.632 181.663C405.28 171.304 395.952 169.057 395.952 169.057Z" fill="#2F2E41"/>
<path d="M399.122 167.985C379.549 166.806 377.584 181.54 377.584 181.54C377.72 190.066 391.26 185.912 395.021 187.183C399.558 183.919 408.303 177.744 414.558 173.336C410.017 170.139 404.668 168.285 399.122 167.985Z" fill="#2F2E41"/>
<path d="M393.546 262.002C393.546 262.002 375.988 179.716 266.094 120.025" stroke="#3F3D56" stroke-width="2" stroke-miterlimit="10"/>
<path d="M270.622 118.23L270.841 119.132L266.396 120.21L267.797 124.565L266.913 124.848L265.208 119.544L270.622 118.23Z" fill="#3F3D56"/>
<path d="M31.761 346.08C31.761 356.502 25.5657 360.141 17.9227 360.141C17.7457 360.141 17.5689 360.139 17.3924 360.135C17.0383 360.127 16.6875 360.111 16.341 360.087C9.44336 359.599 4.08442 355.773 4.08442 346.08C4.08442 336.049 16.9025 323.392 17.8654 322.456L17.8671 322.454C17.9042 322.418 17.9227 322.4 17.9227 322.4C17.9227 322.4 31.761 335.658 31.761 346.08Z" fill="#1955BE"/>
<path d="M17.4185 358.547L22.4798 351.474L17.4059 359.323L17.3924 360.135C17.0383 360.127 16.6875 360.111 16.341 360.087L16.8865 349.66L16.8823 349.579L16.8916 349.564L16.943 348.579L11.8564 340.711L16.959 347.841L16.9708 348.05L17.3831 340.171L13.0284 332.041L17.4362 338.789L17.8654 322.456L17.8671 322.4V322.454L17.7954 335.334L22.1308 330.228L17.7777 336.443L17.663 343.497L21.7109 336.727L17.6462 344.535L17.5821 348.456L23.4587 339.034L17.5602 349.824L17.4185 358.547Z" fill="#3F3D56"/>
<path d="M97.7661 343.38L100.726 341.181C100.726 341.181 102.686 352.126 100.499 353.766C98.3127 355.406 90.1134 358.139 90.1134 361.419C90.1134 364.698 71.5282 369.071 70.9816 364.152C70.435 359.232 72.6214 356.499 72.6214 356.499C72.6214 356.499 81.3674 347.753 82.4607 346.113C83.5539 344.473 86.287 341.193 86.287 341.193L97.7661 343.38Z" fill="#2F2E41"/>
<path d="M54.0363 207.271C54.0363 207.271 54.1183 207.752 54.2603 208.632C54.3916 209.414 54.5719 210.518 54.7906 211.879C57.0865 225.889 63.7826 267.132 63.3289 268.493C62.7822 270.132 58.9559 276.145 63.3289 277.785C63.7498 277.944 64.2034 278.458 64.6899 279.267C65.6289 281.009 66.403 282.835 67.0021 284.722C69.6095 292.287 72.3974 304.395 74.0099 312.78C74.7151 316.464 75.196 319.427 75.3381 320.979C75.3876 321.338 75.3931 321.702 75.3546 322.062C74.8079 324.248 78.6343 331.901 80.2742 334.087C81.914 336.274 84.6472 338.46 84.1005 340.647C83.5539 342.833 97.7661 348.846 99.406 345.02C101.046 341.194 101.046 339.007 101.592 337.914C102.139 336.821 102.686 329.168 99.9526 328.075C97.2195 326.981 98.8593 307.85 96.1262 304.023C95.2134 302.75 93.8195 298.437 92.36 293.249C91.7861 291.216 91.2066 289.051 90.6381 286.881C88.3314 277.987 86.287 269.039 86.287 269.039L86.8336 205.084L56.7694 201.258L55.9987 202.958L54.4626 206.331L54.0363 207.271Z" fill="#2F2E41"/>
<path d="M52.3964 312.222C52.3964 312.222 48.0234 307.849 45.8369 312.222C43.6504 316.595 41.4639 333.541 37.6376 337.367C33.8112 341.194 28.8916 360.325 34.3578 361.419C39.8241 362.512 45.8369 359.779 46.3835 356.499C46.9302 353.219 58.4092 336.274 58.4092 334.634C58.4092 332.994 50.7565 326.981 50.7565 326.981L52.3964 312.222Z" fill="#2F2E41"/>
<path d="M119.631 177.207C119.631 177.207 112.525 241.161 110.885 247.174C109.245 253.187 100.499 276.145 97.7661 279.972C95.033 283.798 77.541 314.956 75.3546 316.595C73.1681 318.235 68.7951 322.608 68.7951 322.608C68.7951 322.608 60.5957 330.808 59.5025 332.447C58.4092 334.087 49.1166 329.168 48.57 325.888C48.0234 322.608 49.1166 317.142 49.6633 314.956C50.2099 312.769 48.57 309.489 50.2099 307.849C51.8498 306.21 60.0491 298.01 60.0491 294.184C60.0491 290.358 74.2613 267.946 79.7275 263.026C85.1938 258.107 84.1005 249.907 84.1005 249.907V216.563L54.0362 207.271C54.0362 207.271 55.6761 181.033 59.5025 181.033C63.3288 181.033 113.618 172.287 119.631 177.207Z" fill="#2F2E41"/>
<path d="M75.3545 85.9204C85.317 85.9204 93.3931 77.8443 93.3931 67.8818C93.3931 57.9194 85.317 49.8433 75.3545 49.8433C65.3921 49.8433 57.316 57.9194 57.316 67.8818C57.316 77.8443 65.3921 85.9204 75.3545 85.9204Z" fill="#9F616A"/>
<path d="M81.3674 82.0941C81.3674 82.0941 83.5539 90.2935 86.287 92.48C89.0201 94.6665 79.1809 103.959 79.1809 103.959L60.5957 105.052L57.316 94.6665C57.316 94.6665 63.3288 82.6407 61.689 74.988C60.0491 67.3353 81.3674 82.0941 81.3674 82.0941Z" fill="#9F616A"/>
<path d="M89.0201 91.3867C89.0201 91.3867 84.1005 91.9333 83.0073 93.5732C81.914 95.2131 74.2613 100.133 68.2485 99.0394C62.2356 97.9462 58.4092 96.3063 57.316 96.8529C56.2228 97.3996 54.0363 108.879 54.0363 108.879L60.0491 126.371L58.9559 174.473L57.316 187.592C57.316 187.592 54.0363 183.219 67.1552 185.953C80.2742 188.686 97.2195 183.766 102.686 183.219C108.152 182.673 117.445 181.033 117.991 177.753C118.538 174.473 116.351 162.448 116.351 162.448L107.605 125.824L102.139 106.146L89.0201 91.3867Z" fill="#1955BE"/>
<path d="M83.8497 88.9196C83.8497 88.9196 88.4735 86.4671 90.1134 88.6536C91.7533 90.8401 112.525 94.1199 112.525 95.7597C112.525 97.3996 116.898 141.676 115.805 145.502C114.711 149.329 117.991 153.702 117.991 153.702L121.818 170.101C121.818 170.101 132.203 201.258 127.83 202.351C123.457 203.445 119.631 202.351 117.991 202.351C116.351 202.351 116.898 181.58 112.525 176.113C108.152 170.647 102.139 156.982 101.046 154.248C99.9526 151.515 86.287 113.798 86.8336 109.425C87.3803 105.052 83.8497 88.9196 83.8497 88.9196Z" fill="#D0CDE1"/>
<path d="M61.1423 91.3867C61.1423 91.3867 56.7694 91.3867 56.2227 92.48C55.6761 93.5732 50.2099 100.679 48.0234 102.319C45.8369 103.959 38.1842 111.065 38.1842 112.705C38.1842 114.345 54.0363 126.371 54.0363 126.371C54.0363 126.371 60.5957 158.621 57.316 169.554C54.0362 180.486 49.1166 206.724 51.3031 208.364C53.4896 210.004 58.4092 210.551 58.4092 208.364C58.4092 206.178 61.689 182.673 64.4221 177.753C67.1552 172.834 75.3546 141.676 72.0748 132.93C68.7951 124.184 61.1423 91.3867 61.1423 91.3867Z" fill="#D0CDE1"/>
<path d="M133.297 145.502C133.297 145.502 133.843 162.448 127.83 171.194C121.818 179.94 117.991 189.779 117.991 189.779C117.991 189.779 108.152 187.046 106.512 183.766C104.872 180.486 94.4864 183.219 94.4864 182.126C94.4864 181.033 107.059 175.567 108.152 174.473C109.245 173.38 113.072 173.38 115.258 171.194C117.445 169.007 117.991 164.088 117.991 164.088L120.178 149.875L133.297 145.502Z" fill="#9F616A"/>
<path d="M87.7786 56.7597C89.1663 56.6337 90.5975 56.495 91.824 55.8336C94.5721 54.3515 95.3008 50.1311 93.2088 47.8134C92.632 47.2236 91.9869 46.7049 91.287 46.2681L87.132 43.44C85.2943 42.1891 83.4132 40.9178 81.2698 40.3282C79.3312 39.7948 77.2837 39.8496 75.277 39.9744C71.3813 40.2165 67.4615 40.7167 63.7974 42.0617C60.1333 43.4067 56.7153 45.6569 54.4962 48.8678C50.9781 53.9582 50.9298 60.8234 52.8674 66.6999C54.805 72.5764 58.4857 77.6937 62.1124 82.7072L63.9941 73.5255C64.1617 72.7077 64.3785 71.8113 65.0587 71.3273C66.7492 70.1244 68.817 72.5943 70.8918 72.5783C72.2249 72.568 73.3442 71.4715 73.8494 70.2378C74.3546 69.004 74.3879 67.6378 74.5048 66.3098C74.7523 63.4969 75.7355 59.583 78.3993 58.0317C80.8815 56.5862 84.9885 57.0132 87.7786 56.7597Z" fill="#2F2E41"/>
<path opacity="0.1" d="M86.7667 207.712C86.7667 207.712 84.9205 261.113 83.8272 262.753C82.734 264.393 83.8272 207.544 83.8272 207.544L86.7667 207.712Z" fill="black"/>
<path d="M108.152 95.7596H112.525C112.525 95.7596 131.11 120.904 128.924 122.544C126.737 124.184 128.924 128.557 128.924 128.557L133.297 136.756C133.297 136.756 138.763 141.676 137.123 142.769C135.483 143.862 133.297 148.235 133.297 148.235C133.297 148.235 122.364 146.596 119.084 153.155L111.995 144.205L108.152 95.7596Z" fill="#D0CDE1"/>
<path d="M109.698 103.848L94.692 110.044L106.239 138.007L121.245 131.811L109.698 103.848Z" fill="#2F2E41"/>
<path d="M107.939 120.248C109.596 119.564 110.43 117.774 109.801 116.252C109.173 114.729 107.319 114.05 105.662 114.734C104.004 115.419 103.17 117.208 103.799 118.73C104.428 120.253 106.281 120.932 107.939 120.248Z" fill="#1955BE"/>
<path d="M97.2195 139.49C97.2195 139.49 57.8626 172.287 51.3031 161.901C44.7437 151.515 58.4092 142.769 58.4092 142.769C58.4092 142.769 70.435 143.316 84.1005 134.57L97.7661 128.557C97.7661 128.557 110.242 110.746 114.493 117.528C118.744 124.311 107.236 136.115 97.2195 139.49Z" fill="#9F616A"/>
<path d="M44.197 110.519L38.1842 112.705V129.104L35.9977 132.383C35.9977 132.383 36.5443 138.943 38.1842 140.583C39.824 142.223 43.1038 141.676 42.0105 145.502C41.3535 147.997 41.1681 150.592 41.4639 153.155C41.4639 153.155 51.3031 165.727 51.8497 164.088C52.3964 162.448 60.0491 142.223 61.1423 142.223C62.2356 142.223 50.2099 110.519 50.2099 110.519H44.197Z" fill="#D0CDE1"/>
<path d="M116.078 193.332C116.078 193.332 121.73 187.866 118.904 187.592C116.078 187.319 106.239 181.853 104.599 184.586C102.959 187.319 116.078 193.332 116.078 193.332Z" fill="#2F2E41"/>
<path d="M223.573 89.0584C227.928 89.0584 231.459 87.1894 231.459 84.8838C231.459 82.5783 227.928 80.7092 223.573 80.7092C219.218 80.7092 215.688 82.5783 215.688 84.8838C215.688 87.1894 219.218 89.0584 223.573 89.0584Z" fill="#57B894"/>
<path d="M253.723 98.7991C235.942 92.0837 218.162 92.0837 200.381 98.7991V76.9984C217.774 71.7499 236.33 71.7499 253.723 76.9984V98.7991Z" stroke="#3F3D56" stroke-width="2" stroke-miterlimit="10"/>
<path d="M246.302 94.2906C233.469 89.4438 220.636 89.4438 207.803 94.2906V78.5562C220.356 74.7681 233.748 74.7681 246.302 78.5562V94.2906Z" stroke="#3F3D56" stroke-width="2" stroke-miterlimit="10"/>
<path d="M226.356 87.203C230.711 87.203 234.242 85.3339 234.242 83.0284C234.242 80.7228 230.711 78.8538 226.356 78.8538C222.001 78.8538 218.471 80.7228 218.471 83.0284C218.471 85.3339 222.001 87.203 226.356 87.203Z" stroke="#3F3D56" stroke-width="2" stroke-miterlimit="10"/>
<path d="M229.371 115.202C233.638 114.331 236.724 111.794 236.263 109.535C235.802 107.276 231.969 106.151 227.702 107.022C223.435 107.893 220.349 110.43 220.81 112.689C221.271 114.948 225.104 116.073 229.371 115.202Z" fill="#57B894"/>
<path d="M260.86 118.717C242.096 115.693 224.674 119.249 208.595 129.384L204.236 108.024C220.228 99.4031 238.409 95.6924 256.501 97.3568L260.86 118.717Z" stroke="#3F3D56" stroke-width="2" stroke-miterlimit="10"/>
<path d="M252.687 115.784C239.144 113.601 226.57 116.167 214.965 123.483L211.819 108.066C223.361 101.844 236.483 99.1659 249.54 100.367L252.687 115.784Z" stroke="#3F3D56" stroke-width="2" stroke-miterlimit="10"/>
<path d="M231.727 112.828C235.994 111.957 239.079 109.42 238.618 107.161C238.157 104.902 234.325 103.776 230.058 104.647C225.791 105.518 222.705 108.056 223.166 110.315C223.627 112.574 227.46 113.699 231.727 112.828Z" stroke="#3F3D56" stroke-width="2" stroke-miterlimit="10"/>
<path d="M234.768 137.607C234.928 135.307 231.535 133.197 227.191 132.895C222.847 132.592 219.195 134.212 219.035 136.512C218.875 138.812 222.267 140.921 226.611 141.224C230.956 141.526 234.608 139.907 234.768 137.607Z" fill="#57B894"/>
<path d="M256.012 153.034C238.741 145.101 221.003 143.866 202.799 149.331L204.312 127.583C222.028 123.555 240.539 124.843 257.526 131.286L256.012 153.034Z" stroke="#3F3D56" stroke-width="2" stroke-miterlimit="10"/>
<path d="M248.922 148.021C236.456 142.295 223.654 141.404 210.516 145.349L211.608 129.652C224.394 126.745 237.754 127.674 250.014 132.325L248.922 148.021Z" stroke="#3F3D56" stroke-width="2" stroke-miterlimit="10"/>
<path d="M237.673 135.949C237.833 133.649 234.441 131.539 230.096 131.237C225.752 130.935 222.1 132.554 221.94 134.854C221.78 137.154 225.172 139.264 229.517 139.566C233.861 139.868 237.513 138.249 237.673 135.949Z" stroke="#3F3D56" stroke-width="2" stroke-miterlimit="10"/>
<path d="M192.459 99.3053C192.459 99.3053 158.369 94.6415 134.023 108.909" stroke="#3F3D56" stroke-width="2" stroke-miterlimit="10"/>
<path d="M134.843 104.114L135.729 104.394L134.345 108.754L138.795 109.816L138.578 110.719L133.159 109.424L134.843 104.114Z" fill="#3F3D56"/>
</g>
<defs>
<clipPath id="clip0_3_260">
<rect width="509.766" height="370" fill="white"/>
</clipPath>
</defs>
</svg>
